<svg width="50" height="50" viewBox="0 0 50 50" fill="none" xmlns="http://www.w3.org/2000/svg">
<path d="M11.8889 9H41.0556C42.1294 9 43 9.87056 43 10.9444V39.463C43 40.5368 42.1294 41.4074 41.0556 41.4074H11.8889V9Z" fill="#6B159F"/>
<path d="M8 11.5926C8 10.1607 9.16074 9 10.5926 9H11.8889V41.4074H10.5926C9.16074 41.4074 8 40.2467 8 38.8148V11.5926Z" fill="#9231BE"/>
<path d="M39.1111 25.2037C39.1111 31.647 33.8878 36.8704 27.4444 36.8704C21.0011 36.8704 15.7778 31.647 15.7778 25.2037C15.7778 18.7604 21.0011 13.537 27.4444 13.537C33.8878 13.537 39.1111 18.7604 39.1111 25.2037Z" fill="#B856DD"/>
<path d="M30.6852 25.2037C30.6852 26.9935 29.2343 28.4444 27.4444 28.4444C25.6546 28.4444 24.2037 26.9935 24.2037 25.2037C24.2037 23.4139 25.6546 21.963 27.4444 21.963C29.2343 21.963 30.6852 23.4139 30.6852 25.2037Z" fill="#9534C0"/>
<path d="M28.7407 25.2037C28.7407 25.9196 28.1604 26.5 27.4444 26.5C26.7285 26.5 26.1481 25.9196 26.1481 25.2037C26.1481 24.4878 26.7285 23.9074 27.4444 23.9074C28.1604 23.9074 28.7407 24.4878 28.7407 25.2037Z" fill="#651497"/>
</svg>
