<svg width="50" height="50" viewBox="0 0 50 50" fill="none" xmlns="http://www.w3.org/2000/svg">
<path fill-rule="evenodd" clip-rule="evenodd" d="M35.0007 10H15.0007C14.5586 10 14.1347 10.1756 13.8221 10.4882C13.5096 10.8007 13.334 11.2246 13.334 11.6667V38.3333C13.334 38.7754 13.5096 39.1993 13.8221 39.5118C14.1347 39.8244 14.5586 40 15.0007 40H35.0007C35.4427 40 35.8666 39.8244 36.1792 39.5118C36.4917 39.1993 36.6673 38.7754 36.6673 38.3333V11.6667C36.6673 11.2246 36.4917 10.8007 36.1792 10.4882C35.8666 10.1756 35.4427 10 35.0007 10ZM29.659 27.5317C29.3507 28.1683 29.0373 28.2017 29.174 27.5317C29.5257 25.8 29.2873 22.08 26.6673 21.6667V29.5833C26.6673 31.205 25.9207 32.6167 23.9357 33.255C22.009 33.87 19.854 33.2283 19.349 31.845C18.844 30.4617 19.9773 28.7783 21.879 28.085C22.9407 27.6983 24.1707 27.5983 25.0007 27.9167V16.6667H26.6673C26.6673 20.5917 33.4423 19.7317 29.659 27.5317Z" fill="#8307BD"/>
</svg>
