<svg width="50" height="50" viewBox="0 0 50 50" fill="none" xmlns="http://www.w3.org/2000/svg">
<path d="M19.75 10.75C20.1346 10.75 20.5086 10.8767 20.814 11.1105L20.989 11.2627L25.7245 16H37.25C38.5891 15.9999 39.8776 16.5116 40.852 17.4302C41.8263 18.3489 42.4127 19.6052 42.4913 20.942L42.5 21.25V35.25C42.5001 36.5891 41.9884 37.8776 41.0698 38.852C40.1511 39.8263 38.8948 40.4127 37.558 40.4913L37.25 40.5H12.75C11.4109 40.5001 10.1223 39.9884 9.14804 39.0698C8.17374 38.1511 7.58731 36.8948 7.50875 35.558L7.5 35.25V16C7.49993 14.6609 8.01157 13.3723 8.93025 12.398C9.84892 11.4237 11.1052 10.8373 12.442 10.7588L12.75 10.75H19.75Z" fill="#8307BD"/>
</svg>
