<svg width="50" height="50" viewBox="0 0 50 50" fill="none" xmlns="http://www.w3.org/2000/svg">
<path d="M21.25 15C21.5247 15 21.7919 15.0905 22.01 15.2575L22.135 15.3662L25.5175 18.75H33.75C34.7065 18.7499 35.6269 19.1154 36.3228 19.7716C37.0188 20.4278 37.4376 21.3251 37.4938 22.28L37.5 22.5V32.5C37.5001 33.4565 37.1346 34.3769 36.4784 35.0728C35.8222 35.7688 34.9249 36.1876 33.97 36.2438L33.75 36.25H16.25C15.2935 36.2501 14.3731 35.8846 13.6772 35.2284C12.9812 34.5722 12.5624 33.6749 12.5063 32.72L12.5 32.5V18.75C12.4999 17.7935 12.8654 16.8731 13.5216 16.1772C14.1778 15.4812 15.0751 15.0624 16.03 15.0063L16.25 15H21.25Z" fill="#8307BD"/>
</svg>
