<svg width="50" height="50" viewBox="0 0 50 50" fill="none" xmlns="http://www.w3.org/2000/svg">
<path d="M20.5 12.875C20.8297 12.875 21.1502 12.9836 21.412 13.184L21.562 13.3145L25.621 17.375H35.5C36.6478 17.3749 37.7523 17.8135 38.5874 18.6009C39.4225 19.3884 39.9252 20.4652 39.9925 21.611L40 21.875V33.875C40.0001 35.0228 39.5615 36.1273 38.7741 36.9624C37.9866 37.7975 36.9098 38.3002 35.764 38.3675L35.5 38.375H14.5C13.3522 38.3751 12.2477 37.9365 11.4126 37.1491C10.5775 36.3616 10.0748 35.2848 10.0075 34.139L10 33.875V17.375C9.99994 16.2272 10.4385 15.1227 11.2259 14.2876C12.0134 13.4525 13.0902 12.9498 14.236 12.8825L14.5 12.875H20.5Z" fill="#8307BD"/>
</svg>
