<svg width="50" height="50" viewBox="0 0 50 50" fill="none" xmlns="http://www.w3.org/2000/svg">
<rect x="17.0547" y="5" width="16.8889" height="24.8889" rx="5.33333" fill="#9231BE" fill-opacity="0.3"/>
<path d="M17.0547 11.2227H23.2769C23.7678 11.2227 24.1658 11.6206 24.1658 12.1115V12.1115C24.1658 12.6025 23.7678 13.0004 23.2769 13.0004H17.0547V11.2227Z" fill="#9231BE"/>
<path d="M17.0547 14.7773H23.2769C23.7678 14.7773 24.1658 15.1753 24.1658 15.6662V15.6662C24.1658 16.1572 23.7678 16.5551 23.2769 16.5551H17.0547V14.7773Z" fill="#9231BE"/>
<path d="M17.0547 21.8906H23.2769C23.7678 21.8906 24.1658 22.2886 24.1658 22.7795V22.7795C24.1658 23.2704 23.7678 23.6684 23.2769 23.6684H17.0547V21.8906Z" fill="#9231BE"/>
<path d="M17.0547 18.332H23.2769C23.7678 18.332 24.1658 18.73 24.1658 19.2209V19.2209C24.1658 19.7118 23.7678 20.1098 23.2769 20.1098H17.0547V18.332Z" fill="#9231BE"/>
<path d="M33.9453 11.2227H27.7231C27.2322 11.2227 26.8342 11.6206 26.8342 12.1115V12.1115C26.8342 12.6025 27.2322 13.0004 27.7231 13.0004H33.9453V11.2227Z" fill="#9231BE"/>
<path d="M33.9453 14.7773H27.7231C27.2322 14.7773 26.8342 15.1753 26.8342 15.6662V15.6662C26.8342 16.1572 27.2322 16.5551 27.7231 16.5551H33.9453V14.7773Z" fill="#9231BE"/>
<path d="M33.9453 21.8906H27.7231C27.2322 21.8906 26.8342 22.2886 26.8342 22.7795V22.7795C26.8342 23.2704 27.2322 23.6684 27.7231 23.6684H33.9453V21.8906Z" fill="#9231BE"/>
<path d="M33.9453 18.332H27.7231C27.2322 18.332 26.8342 18.73 26.8342 19.2209V19.2209C26.8342 19.7118 27.2322 20.1098 27.7231 20.1098H33.9453V18.332Z" fill="#9231BE"/>
<path d="M16.166 17.4453V27.2231C16.166 31.1504 19.3498 34.3342 23.2771 34.3342H27.7216C31.6489 34.3342 34.8327 31.1504 34.8327 27.2231V17.4453" stroke="#6B159F" stroke-width="2.22222" stroke-linecap="round"/>
<path d="M34.8327 44.9987H16.166V44.24C16.166 43.819 16.4614 43.4557 16.8736 43.3698L23.2771 42.0357V34.332H27.7216V42.0357L34.1251 43.3698C34.5373 43.4557 34.8327 43.819 34.8327 44.24V44.9987Z" fill="#6B159F" stroke="#6B159F" stroke-width="0.888889"/>
</svg>
