<svg width="50" height="50" viewBox="0 0 50 50" fill="none" xmlns="http://www.w3.org/2000/svg">
<rect x="16" y="2.5" width="19" height="28" rx="6" fill="#9231BE" fill-opacity="0.3"/>
<path d="M16 9.5H23C23.5523 9.5 24 9.94772 24 10.5V10.5C24 11.0523 23.5523 11.5 23 11.5H16V9.5Z" fill="#9231BE"/>
<path d="M16 13.5H23C23.5523 13.5 24 13.9477 24 14.5V14.5C24 15.0523 23.5523 15.5 23 15.5H16V13.5Z" fill="#9231BE"/>
<path d="M16 21.5H23C23.5523 21.5 24 21.9477 24 22.5V22.5C24 23.0523 23.5523 23.5 23 23.5H16V21.5Z" fill="#9231BE"/>
<path d="M16 17.5H23C23.5523 17.5 24 17.9477 24 18.5V18.5C24 19.0523 23.5523 19.5 23 19.5H16V17.5Z" fill="#9231BE"/>
<path d="M35 9.5H28C27.4477 9.5 27 9.94772 27 10.5V10.5C27 11.0523 27.4477 11.5 28 11.5H35V9.5Z" fill="#9231BE"/>
<path d="M35 13.5H28C27.4477 13.5 27 13.9477 27 14.5V14.5C27 15.0523 27.4477 15.5 28 15.5H35V13.5Z" fill="#9231BE"/>
<path d="M35 21.5H28C27.4477 21.5 27 21.9477 27 22.5V22.5C27 23.0523 27.4477 23.5 28 23.5H35V21.5Z" fill="#9231BE"/>
<path d="M35 17.5H28C27.4477 17.5 27 17.9477 27 18.5V18.5C27 19.0523 27.4477 19.5 28 19.5H35V17.5Z" fill="#9231BE"/>
<path d="M15 16.5V27.5C15 31.9183 18.5817 35.5 23 35.5H28C32.4183 35.5 36 31.9183 36 27.5V16.5" stroke="#6B159F" stroke-width="2.5" stroke-linecap="round"/>
<path d="M36 47.5H15V46.6465C15 46.1728 15.3323 45.7641 15.796 45.6675L23 44.1667V35.5H28V44.1667L35.204 45.6675C35.6677 45.7641 36 46.1728 36 46.6465V47.5Z" fill="#6B159F" stroke="#6B159F"/>
</svg>
