<svg width="50" height="50" viewBox="0 0 50 50" fill="none" xmlns="http://www.w3.org/2000/svg">
<path fill-rule="evenodd" clip-rule="evenodd" d="M27.5837 15.4714C26.2488 16.781 25.695 18.2792 25.8836 19.7269L14.1875 32.3292C13.7094 32.846 13.6337 33.5636 14.2251 34.1556L12.6136 36.2329C12.4503 36.4338 12.4503 36.7239 12.677 36.95L13.0422 37.3282C13.256 37.542 13.5456 37.5549 13.7723 37.3782L15.8496 35.7543C16.4163 36.3462 17.1463 36.27 17.6496 35.7919L24.1716 29.7486L30.2272 24.1334C31.6754 24.3225 33.1989 23.7305 34.5085 22.4091L27.5837 15.4714ZM26.5765 21.6033L21.0242 27.4828L15.4719 33.3622L16.6424 34.5204L28.3514 23.441C27.9978 23.2015 27.6688 22.9274 27.3694 22.6229C27.0546 22.2952 26.7903 21.9553 26.5765 21.6033Z" fill="#8307BD"/>
<path fill-rule="evenodd" clip-rule="evenodd" d="M35.7801 21.137L28.8424 14.1999C31.0459 11.984 33.8408 11.934 35.9557 14.0237C38.0835 16.1386 37.9954 18.9335 35.7801 21.137Z" fill="#8307BD"/>
</svg>
